<svg width="106" height="24" viewBox="0 0 106 24" fill="none" xmlns="http://www.w3.org/2000/svg">
<path d="M7.86781e-06 23.04V3.8147e-05H4.38401L19.168 17.6V3.8147e-05H23.04V23.04H18.656L3.84001 5.40804V23.04H7.86781e-06ZM28.609 23.04V3.8147e-05H49.761V3.87204H32.481V9.60004H46.401V13.44H32.481V19.168H49.761V23.04H28.609ZM54.645 23.04V22.144L63.541 11.52L54.645 0.896038V3.8147e-05H58.933L66.101 8.48004L73.237 3.8147e-05H77.525V0.896038L68.597 11.52L77.525 22.112V23.04H73.237L66.069 14.56L58.933 23.04H54.645ZM82.9178 23.04V4.32004C82.9178 3.5307 83.1098 2.80537 83.4938 2.14404C83.8778 1.4827 84.4004 0.960039 85.0618 0.576038C85.7231 0.192038 86.4484 3.8147e-05 87.2378 3.8147e-05H101.638C102.427 3.8147e-05 103.142 0.192038 103.782 0.576038C104.443 0.960039 104.966 1.4827 105.35 2.14404C105.755 2.80537 105.958 3.5307 105.958 4.32004V23.04H102.086V15.136H86.7578V23.04H82.9178ZM86.7578 11.296H102.086V4.44804C102.086 4.27737 102.022 4.1387 101.894 4.03204C101.787 3.92537 101.659 3.87204 101.51 3.87204H87.3338C87.1844 3.87204 87.0458 3.92537 86.9178 4.03204C86.8111 4.1387 86.7578 4.27737 86.7578 4.44804V11.296Z" fill="white"/>
</svg>
